<?xml version="1.0" standalone="no"?>
<!DOCTYPE svg PUBLIC "-//W3C//DTD SVG 20010904//EN"
 "http://www.w3.org/TR/2001/REC-SVG-20010904/DTD/svg10.dtd">
<svg version="1.0" xmlns="http://www.w3.org/2000/svg"
 width="256.000000pt" height="290.000000pt" viewBox="0 0 256.000000 290.000000"
 preserveAspectRatio="xMidYMid meet">

<g transform="translate(0.000000,290.000000) scale(0.100000,-0.100000)"
fill="#000000" stroke="none">
<path d="M833 2659 l-273 -181 0 -404 c0 -222 2 -404 5 -404 6 0 515 338 530
352 6 5 -61 -25 -149 -66 -87 -42 -162 -76 -167 -76 -5 0 -9 107 -9 238 l0
237 166 110 c92 61 171 112 176 114 6 2 86 -48 179 -110 l169 -114 0 -134 c0
-113 2 -132 15 -127 8 3 55 33 105 66 l90 61 0 127 0 127 -267 180 c-147 99
-274 181 -283 183 -8 1 -138 -79 -287 -179z"/>
<path d="M962 1752 l-402 -267 2 -160 3 -159 270 -183 c149 -100 275 -182 281
-180 7 1 134 83 283 182 l271 180 -3 335 -2 335 -135 92 c-74 51 -142 92 -150
92 -8 0 -196 -121 -418 -267z m498 -199 l-1 -268 -170 -113 -171 -114 -174
116 -174 116 0 130 0 129 59 41 c33 22 65 40 70 40 7 0 11 -32 11 -85 l0 -85
268 179 c147 99 270 180 275 180 4 1 7 -119 7 -266z"/>
<path d="M74 676 c-10 -26 1 -139 14 -144 8 -2 12 12 12 50 l1 53 20 -37 c11
-21 23 -38 27 -38 5 0 18 17 30 38 l22 37 0 -52 c0 -41 4 -53 15 -53 13 0 15
13 13 77 -2 47 -8 78 -15 80 -6 2 -21 -14 -34 -36 -12 -23 -26 -41 -29 -41 -3
0 -16 18 -29 40 -23 41 -38 50 -47 26z"/>
<path d="M290 610 l0 -80 51 0 c60 0 65 23 5 28 -49 4 -48 35 2 40 17 2 32 7
32 12 0 5 -15 10 -32 12 -22 2 -34 9 -36 21 -3 14 4 17 37 17 30 0 41 4 41 15
0 11 -12 15 -50 15 l-50 0 0 -80z"/>
<path d="M450 610 c0 -61 3 -81 13 -78 6 3 13 17 15 31 4 36 28 34 47 -3 9
-16 22 -30 31 -30 13 0 13 4 -1 31 -15 29 -15 32 1 51 17 18 17 22 3 46 -12
22 -23 28 -62 30 l-47 3 0 -81z m85 30 c0 -9 -11 -16 -27 -18 -23 -3 -28 1
-28 18 0 17 5 21 28 18 16 -2 27 -9 27 -18z"/>
<path d="M636 674 c-18 -18 -22 -95 -6 -125 16 -28 84 -27 104 3 20 29 20 87
0 116 -18 26 -74 30 -98 6z m82 -66 c-3 -44 -24 -66 -52 -55 -24 9 -23 104 2
110 35 8 53 -12 50 -55z"/>
<path d="M150 438 c-80 -23 -130 -89 -130 -172 0 -86 46 -150 126 -176 46 -15
127 -8 177 16 l37 18 0 73 0 73 -40 0 -40 0 0 -49 c0 -54 -8 -61 -68 -61 -59
1 -102 47 -102 110 0 23 10 42 34 66 39 39 74 44 133 19 36 -15 38 -15 62 9
32 32 18 50 -52 71 -57 17 -86 18 -137 3z"/>
<path d="M492 267 c-40 -94 -72 -175 -72 -179 0 -5 20 -8 44 -8 42 0 45 2 56
35 l12 35 79 0 80 0 15 -35 c13 -33 17 -35 59 -35 25 0 45 3 45 8 0 4 -32 85
-72 180 l-72 172 -50 0 -51 0 -73 -173z m165 -43 c-3 -3 -25 -4 -50 -2 l-45 3
26 64 25 63 25 -61 c13 -34 22 -64 19 -67z"/>
<path d="M880 260 l0 -180 45 0 45 0 0 70 0 70 75 0 75 0 0 -70 0 -70 45 0 45
0 0 180 0 180 -45 0 -45 0 0 -70 0 -70 -75 0 -75 0 0 70 0 70 -45 0 -45 0 0
-180z"/>
<path d="M1353 271 c-40 -93 -73 -174 -73 -180 0 -6 18 -11 43 -11 40 0 44 2
56 35 l12 35 80 0 79 0 14 -35 c14 -33 18 -35 60 -35 26 0 46 3 46 8 0 4 -32
85 -72 180 l-73 172 -50 0 -50 0 -72 -169z m163 -48 c-2 -2 -24 -3 -49 -1
l-45 3 26 64 25 63 24 -62 c13 -35 21 -65 19 -67z"/>
<path d="M1740 260 l0 -180 40 0 39 0 3 112 3 113 82 -113 c82 -110 84 -112
123 -112 l40 0 0 180 0 180 -45 0 -45 0 0 -107 0 -106 -80 106 c-79 105 -81
107 -120 107 l-40 0 0 -180z"/>
<path d="M2211 267 c-41 -94 -76 -175 -78 -180 -2 -4 16 -7 42 -7 42 0 47 3
62 35 l17 35 78 0 78 0 14 -35 c14 -33 18 -35 62 -35 40 0 45 2 40 18 -4 9
-37 90 -74 179 l-67 163 -50 0 -50 0 -74 -173z m148 17 c11 -31 21 -58 21 -60
0 -2 -22 -4 -50 -4 l-49 0 21 60 c12 33 25 60 29 60 3 0 16 -25 28 -56z"/>
</g>
</svg>
