<?xml version="1.0" standalone="no"?>
<!DOCTYPE svg PUBLIC "-//W3C//DTD SVG 20010904//EN"
 "http://www.w3.org/TR/2001/REC-SVG-20010904/DTD/svg10.dtd">
<svg version="1.0" xmlns="http://www.w3.org/2000/svg"
 width="200.000000pt" height="200.000000pt" viewBox="0 0 200.000000 200.000000"
 preserveAspectRatio="xMidYMid meet">

<g transform="translate(0.000000,200.000000) scale(0.100000,-0.100000)"
fill="#000000" stroke="none">
<path d="M836 1885 c-289 -60 -515 -233 -641 -488 -71 -144 -89 -224 -88 -397
0 -173 18 -255 88 -397 114 -232 328 -407 580 -475 115 -31 336 -30 450 1 317
86 560 329 646 646 31 114 32 335 1 450 -30 109 -101 249 -172 340 -112 141
-298 260 -475 306 -105 27 -294 34 -389 14z m564 -560 l0 -75 75 0 75 0 0 -30
0 -30 -75 0 -75 0 0 -75 0 -75 -30 0 -30 0 0 75 0 75 -80 0 -80 0 0 30 0 30
80 0 80 0 0 75 0 75 30 0 30 0 0 -75z m-387 51 c39 -16 82 -61 96 -99 6 -16
11 -56 11 -91 0 -204 -208 -299 -320 -145 -79 110 -56 274 48 329 44 23 119
26 165 6z m-208 -406 c4 -6 25 -20 47 -31 58 -30 141 -23 198 15 l42 27 39
-27 c48 -33 144 -134 164 -174 15 -28 14 -29 -28 -63 -190 -155 -486 -157
-662 -4 l-40 34 20 36 c23 44 102 128 158 168 43 32 53 34 62 19z"/>
</g>
</svg>
